<svg width="119" height="119" viewBox="0 0 119 119" fill="none" xmlns="http://www.w3.org/2000/svg">
<rect width="119" height="119" rx="21" fill="url(#paint0_linear_9_27)"/>
<path d="M96 64.5936C96 87.5897 80.25 99.0878 61.53 105.757C60.5497 106.096 59.4849 106.08 58.515 105.711C39.75 99.0878 24 87.5897 24 64.5936V32.399C24 31.1792 24.4741 30.0094 25.318 29.1468C26.1619 28.2843 27.3065 27.7998 28.5 27.7998C37.5 27.7998 48.75 22.2807 56.58 15.2899C57.5333 14.4574 58.7461 14 60 14C61.2539 14 62.4667 14.4574 63.42 15.2899C71.295 22.3267 82.5 27.7998 91.5 27.7998C92.6935 27.7998 93.8381 28.2843 94.682 29.1468C95.5259 30.0094 96 31.1792 96 32.399V64.5936Z" stroke="#2563E6" stroke-width="6" stroke-linecap="round" stroke-linejoin="round"/>
<defs>
<linearGradient id="paint0_linear_9_27" x1="59.5" y1="0" x2="59.5" y2="119" gradientUnits="userSpaceOnUse">
<stop stop-color="#D9D9D9"/>
<stop offset="1" stop-color="#CEDDFF"/>
</linearGradient>
</defs>
</svg>
