<svg width="249" height="87" viewBox="0 0 249 87" fill="none" xmlns="http://www.w3.org/2000/svg">
<path d="M104.531 72C103.891 69.9646 102.961 67.7838 101.74 65.4577C100.576 63.0733 99.268 60.7763 97.8141 58.5664C96.3602 56.2984 94.8192 54.2048 93.1909 52.2858C91.6207 50.3085 90.1087 48.6511 88.6548 47.3136V72H77.9254V18.0039H88.6548V40.4223C89.9342 38.794 91.2718 36.9912 92.6675 35.014C94.0632 33.0368 95.3716 31.0595 96.5929 29.0823C97.8723 27.105 99.0353 25.1569 100.082 23.2378C101.129 21.3187 102.001 19.5741 102.699 18.0039H114.824C114.01 19.5741 113.021 21.3769 111.858 23.4123C110.753 25.3895 109.474 27.483 108.02 29.6929C106.566 31.8446 104.996 34.0545 103.31 36.3225C101.681 38.5905 99.9658 40.7713 98.163 42.8648C99.9658 44.6094 101.798 46.6157 103.659 48.8837C105.52 51.1518 107.264 53.5942 108.892 56.2112C110.579 58.7699 112.091 61.416 113.428 64.1492C114.766 66.8243 115.842 69.4412 116.656 72H104.531ZM158.789 31.0014C157.684 34.8395 156.608 38.6196 155.561 42.3414C154.572 46.0051 153.526 49.6107 152.421 53.1581C151.316 56.6473 150.124 60.0784 148.844 63.4513C147.623 66.8243 146.286 70.11 144.832 73.3085C143.727 75.6346 142.622 77.6409 141.517 79.3274C140.47 81.0139 139.278 82.3805 137.94 83.4273C136.661 84.5322 135.207 85.3464 133.579 85.8698C132.009 86.3931 130.148 86.6548 127.996 86.6548C126.193 86.6548 124.536 86.5094 123.024 86.2187C121.57 85.9279 120.349 85.5499 119.36 85.0847L121.367 76.0999C122.53 76.6233 123.547 76.9722 124.42 77.1466C125.35 77.3793 126.339 77.4956 127.385 77.4956C129.479 77.4956 131.165 76.7977 132.445 75.402C133.724 74.0063 134.742 72.3489 135.498 70.4298C132.939 65.3123 130.38 59.4678 127.822 52.8964C125.263 46.2668 122.937 38.9685 120.843 31.0014H132.009C132.532 33.1531 133.114 35.4502 133.753 37.8926C134.451 40.3351 135.178 42.7776 135.934 45.22C136.69 47.6625 137.475 50.0759 138.289 52.4602C139.162 54.7864 140.034 56.9672 140.906 59.0026C141.488 56.9672 142.098 54.7864 142.738 52.4602C143.378 50.0759 143.988 47.6916 144.57 45.3073C145.152 42.8648 145.704 40.4223 146.227 37.9799C146.809 35.5374 147.332 33.2112 147.798 31.0014H158.789ZM191.239 51.8496C191.239 48.1859 190.512 45.191 189.058 42.8648C187.604 40.4805 185.394 39.2883 182.428 39.2883C181.614 39.2883 180.742 39.3465 179.811 39.4628C178.881 39.5209 178.096 39.5791 177.456 39.6372V62.1429C178.154 62.6081 179.084 62.9861 180.248 63.2769C181.411 63.5677 182.574 63.713 183.737 63.713C186.296 63.713 188.186 62.6953 189.407 60.66C190.628 58.5664 191.239 55.6296 191.239 51.8496ZM202.143 51.5007C202.143 54.641 201.794 57.5487 201.096 60.2238C200.398 62.8407 199.38 65.1087 198.043 67.0278C196.705 68.8888 195.019 70.3426 192.983 71.3894C190.948 72.4362 188.593 72.9595 185.918 72.9595C183.184 72.9595 180.364 72.2908 177.456 70.9532V86.3931H166.727V32.3098C168.704 31.6701 171.117 31.1468 173.967 30.7397C176.875 30.3326 179.724 30.1291 182.516 30.1291C188.854 30.1291 193.71 32.0481 197.083 35.8863C200.456 39.7245 202.143 44.9293 202.143 51.5007ZM226.742 64.3237C227.905 64.3237 229.039 64.3237 230.144 64.3237C231.249 64.2655 232.208 64.1783 233.022 64.062V54.641C232.325 54.5247 231.481 54.4375 230.493 54.3793C229.504 54.263 228.603 54.2048 227.788 54.2048C226.684 54.2048 225.608 54.2921 224.561 54.4665C223.514 54.5828 222.584 54.8155 221.77 55.1644C221.014 55.5133 220.403 56.0076 219.938 56.6473C219.472 57.287 219.24 58.1302 219.24 59.177C219.24 61.038 219.938 62.3755 221.333 63.1897C222.729 63.9457 224.532 64.3237 226.742 64.3237ZM225.782 29.9546C229.155 29.9546 231.947 30.3617 234.156 31.1758C236.424 31.9318 238.227 33.0368 239.565 34.4906C240.902 35.8863 241.862 37.6309 242.443 39.7245C243.025 41.7599 243.316 44.057 243.316 46.6157V71.0405C241.745 71.3894 239.419 71.7965 236.337 72.2617C233.255 72.7269 229.795 72.9595 225.957 72.9595C223.34 72.9595 220.955 72.7269 218.804 72.2617C216.71 71.7965 214.907 71.0405 213.395 69.9937C211.883 68.8888 210.72 67.4931 209.906 65.8066C209.092 64.062 208.685 61.9393 208.685 59.4387C208.685 57.0544 209.15 55.0481 210.081 53.4198C211.011 51.7915 212.261 50.483 213.832 49.4944C215.402 48.5057 217.204 47.8079 219.24 47.4008C221.275 46.9356 223.398 46.703 225.608 46.703C228.399 46.703 230.871 46.9356 233.022 47.4008V46.0924C233.022 44.057 232.383 42.3705 231.103 41.0329C229.824 39.6372 227.614 38.9394 224.474 38.9394C222.438 38.9394 220.461 39.0848 218.542 39.3756C216.681 39.6663 215.169 40.0152 214.006 40.4223L212.523 31.7864C213.861 31.3212 215.751 30.9141 218.193 30.5652C220.636 30.1581 223.165 29.9546 225.782 29.9546Z" fill="#020202"/>
<path d="M51 47.0013C51 62.0013 40.5 69.5014 28.02 73.8514C27.3665 74.0728 26.6566 74.0622 26.01 73.8214C13.5 69.5014 3 62.0013 3 47.0013V26.0013C3 25.2057 3.31607 24.4426 3.87868 23.88C4.44129 23.3174 5.20435 23.0013 6 23.0013C12 23.0013 19.5 19.4013 24.72 14.8413C25.3556 14.2983 26.1641 14 27 14C27.8359 14 28.6444 14.2983 29.28 14.8413C34.53 19.4313 42 23.0013 48 23.0013C48.7956 23.0013 49.5587 23.3174 50.1213 23.88C50.6839 24.4426 51 25.2057 51 26.0013V47.0013Z" stroke="#2563E6" stroke-width="6" stroke-linecap="round" stroke-linejoin="round"/>
</svg>
